<?xml version="1.0" encoding="utf-8"?>
<!-- Generator: Adobe Illustrator 23.0.0, SVG Export Plug-In . SVG Version: 6.00 Build 0)  -->
<svg version="1.1" id="圖層_1" xmlns="http://www.w3.org/2000/svg" xmlns:xlink="http://www.w3.org/1999/xlink" x="0px" y="0px"
	 viewBox="0 0 80 80" style="enable-background:new 0 0 80 80;" xml:space="preserve">
<g>
	<path d="M22.55,19.14c-1.93,1.08-12.42,6.59-12.5,0.86c-0.02-1.29-2.02-1.29-2,0c0.02,1.48,0.42,2.51,1.08,3.21
		c-0.01,0.04-0.03,0.07-0.04,0.1c-0.1,0.19-0.19,0.38-0.32,0.55c-0.01,0.01,0,0-0.02,0.02C8.7,23.95,8.65,24,8.59,24.06
		c-0.14,0.14-0.1,0.11-0.25,0.2c-0.27,0.16-0.49,0.23-0.84,0.24c-1.28,0.03-1.29,2.03,0,2c1.49-0.04,2.78-0.95,3.38-2.29
		c3.81,1.05,10.37-2.06,12.68-3.35C24.68,20.24,23.67,18.51,22.55,19.14z M9.09,23.33C9.07,23.36,9.07,23.37,9.09,23.33L9.09,23.33z
		"/>
	<path d="M37.79,44.96c1.26,0.22,1.8-1.71,0.53-1.93c-2.51-0.43-3.4-1.93-2.77-4.35c0.29-1.11,0.76-2.2,1.37-3.18
		c0.68-1.1-1.05-2.1-1.73-1.01C32.82,38.33,32.16,44,37.79,44.96z"/>
	<path d="M43.55,41.86c1.78,0.86,3.95,0.67,5.77,0.1c1.23-0.38,0.7-2.31-0.53-1.93c-1.05,0.32-2.12,0.51-3.22,0.35
		c-0.28-0.04-0.55-0.12-0.83-0.19c-0.09-0.02-0.17-0.06-0.26-0.09c0.01,0,0.04,0.02,0.06,0.03C43.39,39.6,42.39,41.31,43.55,41.86z"
		/>
	<path d="M58.75,54.32c-0.27-0.34-0.73-0.5-1.21-0.18c-4.57,3.06-9.6,1.28-14.06,3.49c-0.83,0.41-1.39,1.19-2.42,1.36
		c-0.51,0.09-0.91-0.62-1.43-0.56c-3.1,0.36-5.24,2.41-8.58,2.57c-1.18,0.06-1.29,1.55-0.27,1.96c2.02,0.81,4.08,1.34,6.15,1.61
		c1.42,0.4,2.95,2.53,4.5,2.92c2.47,0.63,5.36,0.11,7.72-0.71c4.16-1.45,6.16-5.39,7.93-9.17c0.64-0.66,1.26-1.36,1.84-2.11
		C59.27,55.04,59.11,54.59,58.75,54.32z M40.05,60.72c1.15,0.03,1.51,0.79,2.9,0.5c2.47-0.52-0.56-1.71,4.42-2.61
		c1.3-0.24,2.82,0.14,4.17-0.04c0.72-0.1,1.42-0.25,2.1-0.43c-4.65,3.74-10.63,5.22-16.56,4.42c-0.1-0.02-0.2-0.03-0.31-0.04
		c-0.69-0.1-1.38-0.23-2.06-0.4C36.55,61.46,38.36,60.68,40.05,60.72z M46.84,65.36c-2.44,0.59-4.04,0.28-5.76-0.6
		c4.21-0.16,8.28-1.41,11.83-3.7C51.48,63.09,49.65,64.68,46.84,65.36z"/>
	<path d="M5.63,39.67c-2.72,0.86-4.52,3.99-2.77,6.57c0.04,0.06,0.08,0.11,0.13,0.16c0.01,0.02,0.01,0.03,0.03,0.05
		c2.95,3.41,9.53,1.7,9.02-3.28C11.71,39.94,8.45,38.78,5.63,39.67z M9.87,44.71c-0.97,2.15-3.93,1.91-5.34,0.42
		c-1.19-1.92,0.86-3.62,2.75-3.74C9.16,41.27,10.72,42.82,9.87,44.71z"/>
	<path d="M78.43,35.46c-0.89-2.25-3.88-2.94-5.89-1.8c-2.4,1.36-3.3,5.25-1.03,7.15c0.01,0,0.01,0.01,0.02,0.01
		c0.05,0.05,0.11,0.1,0.18,0.15C75.04,43.07,79.89,39.17,78.43,35.46z M72.83,39.29c-1.37-1.32-0.31-3.89,1.5-4.17
		c1.1-0.17,2.4,0.51,2.35,1.72C76.59,38.65,74.47,40.22,72.83,39.29z"/>
	<path d="M53.5,23.5c1.67-0.04,3.08-1.18,3.57-2.77c0.02-0.06,0.01-0.11,0.02-0.16c4.3,0.5,11.82-3.73,13.47-4.71
		c1.11-0.65,0.1-2.38-1.01-1.73c-1.25,0.74-13.42,7.63-13.5,2.86c-0.02-1.29-2.02-1.29-2,0c0.02,1.43,0.49,2.36,1.24,2.92
		c-0.06,0.08-0.12,0.17-0.15,0.28c-0.01,0.04-0.03,0.08-0.04,0.11c-0.1,0.19-0.19,0.38-0.32,0.55c-0.01,0.01,0,0-0.02,0.02
		c-0.05,0.06-0.11,0.12-0.17,0.18c-0.14,0.14-0.1,0.11-0.25,0.2c-0.27,0.16-0.49,0.23-0.84,0.24C52.22,21.53,52.21,23.53,53.5,23.5z
		 M55.09,20.33C55.07,20.36,55.07,20.37,55.09,20.33L55.09,20.33z"/>
</g>
</svg>
