<!-- 第6版：face_home_6.svg -->
<?xml version="1.0" encoding="utf-8"?>
<!-- Generator: Adobe Illustrator 23.0.0, SVG Export Plug-In . SVG Version: 6.00 Build 0)  -->
<svg version="1.1" id="圖層_1" xmlns="http://www.w3.org/2000/svg" xmlns:xlink="http://www.w3.org/1999/xlink" x="0px" y="0px"
	 viewBox="0 0 90 45" style="enable-background:new 0 0 90 45;" xml:space="preserve">
<g>
	<path d="M41.63,27.47c0.18,1.75-0.08,3.26-0.89,4.84c-0.4,0.79-0.93,1.55-1.04,2.46c-0.22,1.82,1.12,3,2.45,4
		c0.77,0.58,1.52-0.72,0.76-1.3c-1.61-1.21-1.82-2.12-1.04-4.12c0.19-0.48,0.51-0.92,0.7-1.41c0.57-1.44,0.71-2.93,0.55-4.47
		C43.03,26.52,41.53,26.51,41.63,27.47L41.63,27.47z"/>
</g>
<path d="M86.67,29.92c-1.38-2.56-5.13-2.57-7.53-1.68c-2,0.75-3.78,3.07-2.57,5.22c1.47,2.61,5.7,2.25,8.06,1.48
	c0.22-0.07,0.36-0.22,0.44-0.38C86.68,33.62,87.69,31.81,86.67,29.92z M83.06,33.72c-0.14,0.02-0.24,0.08-0.33,0.16
	c-1.04,0.18-2.11,0.19-3.15-0.1c-2.26-0.63-2.36-2.9-0.35-3.95c1.23-0.63,3.03-0.8,4.36-0.44c0.92,0.25,1.98,1.04,1.98,2.12
	C85.57,32.95,84.2,33.52,83.06,33.72z"/>
<path d="M14.06,28.88C12,27.12,8.87,27.73,6.57,28.7c-1.94,0.82-4.13,3.19-2.11,5.13c2.31,2.23,6.15,1.29,8.85,0.55
	c0.35-0.1,0.51-0.36,0.53-0.63C15.78,32.73,15.63,30.22,14.06,28.88z M13,32.5c-0.25,0.12-0.35,0.31-0.37,0.51
	c-1.21,0.33-2.43,0.67-3.69,0.7c-0.69,0.02-1.4-0.03-2.07-0.24C6,33,6,33,5.77,32.04c0.08-0.36,0.13-0.59,0.18-0.76
	c0.12-0.43,0.39-0.81,0.79-1.01c0.8-0.42,1.74-0.63,2.61-0.79c0.86-0.16,1.77-0.35,2.63-0.07C13.16,29.79,14.9,31.58,13,32.5z"/>
<path d="M31.78,17.39c-0.6-2.01-3.15-3.9-4.37-5.72c-1.63-2.42-3.15-4.01-6.06-4.86c-2.92-0.85-6.74,0.85-6.91,0.85
	c-1.86,0-3.62-0.4-5.29-1.23C8.29,6,7.53,7.3,8.39,7.72c1.6,0.79,3.28,1.24,5.04,1.37c-0.71,0.74-1.38,1.55-2.09,2.36
	c-1.74-0.12-3.41-0.53-5.02-1.21c-0.89-0.37-1.28,1.08-0.4,1.45c1.34,0.56,2.71,0.93,4.13,1.13c-1.32,1.28-2.86,2.37-4.97,2.8
	c-0.95,0.19-0.55,1.64,0.4,1.45c2.01-0.41,3.78-1.05,5.4-2.37c1.54-1.25,2.08-3.24,3.46-4.44c3.02-2.64,7.18-2.59,9.95-0.02
	c1.07,0.99,1.7,2.05,2.48,3.23c0.48,0.73,0.94,1.52,1.51,2.19c0.16,0.19,0.73,0.7,1.36,1.11c0.15,0.1,0.14,0.32-0.03,0.39
	c-1.69,0.78-8.49,3.75-8.51,3.76c-4.19,1.41-6.59-1.42-10.29-1.58c-0.97-0.04-0.96,1.46,0,1.5c2.88,0.12,4.41,2.71,7.57,2.46
	c4.55-0.36,7.9-4.15,12.4-4.83c0.04-0.01,0.06-0.03,0.1-0.04c0.01,0,0.01,0,0.01,0c0.12-0.04,0.23-0.08,0.35-0.13
	C31.63,18.18,31.91,17.8,31.78,17.39z"/>
<path d="M57.57,17.39c0.6-2.01,3.15-3.9,4.37-5.72c1.63-2.42,3.15-4.01,6.06-4.86c2.92-0.85,6.74,0.85,6.91,0.85
	c1.86,0,3.62-0.4,5.29-1.23c0.86-0.43,1.62,0.87,0.76,1.3c-1.6,0.79-3.28,1.24-5.04,1.37c0.71,0.74,1.38,1.55,2.09,2.36
	c1.74-0.12,3.41-0.53,5.02-1.21c0.89-0.37,1.28,1.08,0.4,1.45c-1.34,0.56-2.71,0.93-4.13,1.13c1.32,1.28,2.86,2.37,4.97,2.8
	c0.95,0.19,0.55,1.64-0.4,1.45c-2.01-0.41-3.78-1.05-5.4-2.37c-1.54-1.25-2.08-3.24-3.46-4.44c-3.02-2.64-7.18-2.59-9.95-0.02
	c-1.07,0.99-1.7,2.05-2.48,3.23c-0.48,0.73-0.94,1.52-1.51,2.19c-0.16,0.19-0.73,0.7-1.36,1.11c-0.15,0.1-0.14,0.32,0.03,0.39
	c1.69,0.78,8.49,3.75,8.51,3.76c4.19,1.41,6.59-1.42,10.29-1.58c0.97-0.04,0.96,1.46,0,1.5c-2.88,0.12-4.41,2.71-7.57,2.46
	c-4.55-0.36-7.9-4.15-12.4-4.83c-0.04-0.01-0.06-0.03-0.1-0.04c-0.01,0-0.01,0-0.01,0c-0.12-0.04-0.23-0.08-0.35-0.13
	C57.72,18.18,57.44,17.8,57.57,17.39z"/>
</svg>
