<?xml version="1.0" encoding="utf-8"?>
<!-- Generator: Adobe Illustrator 23.0.0, SVG Export Plug-In . SVG Version: 6.00 Build 0)  -->
<svg version="1.1" id="圖層_1" xmlns="http://www.w3.org/2000/svg" xmlns:xlink="http://www.w3.org/1999/xlink" x="0px" y="0px"
	 viewBox="0 0 16 16" style="enable-background:new 0 0 16 16;" xml:space="preserve">
<path d="M10.81,1c-0.28,0-0.56,0.07-0.8,0.22c-0.59,0.37-0.84,1.1-1.05,1.77C8.64,3.93,8.31,4.87,7.96,5.8
	C7.93,5.18,7.85,4.55,7.67,3.95C7.6,3.69,7.5,3.43,7.38,3.18C7,2.37,6.35,1.65,5.51,1.31C5.2,1.19,4.86,1.12,4.52,1.12
	c-0.51,0-1.02,0.15-1.44,0.45C2.37,2.09,2.1,3.06,2.16,3.9C2.21,4.72,2.52,5.5,2.9,6.23c1.43,2.77,3.77,5.02,4.97,7.9
	c1.67-2.64,3.32-5.32,4.45-8.23c0.28-0.72,0.53-1.46,0.56-2.24c0.03-0.77-0.2-1.58-0.75-2.12C11.78,1.2,11.29,1,10.81,1L10.81,1z"/>
</svg>
