<!-- 第4版：face_home_4.svg -->
<?xml version="1.0" encoding="utf-8"?>
<!-- Generator: Adobe Illustrator 23.0.0, SVG Export Plug-In . SVG Version: 6.00 Build 0)  -->
<svg version="1.1" id="圖層_1" xmlns="http://www.w3.org/2000/svg" xmlns:xlink="http://www.w3.org/1999/xlink" x="0px" y="0px"
	 viewBox="0 0 90 90" style="enable-background:new 0 0 90 90;" xml:space="preserve">
<style type="text/css">
	.st0{fill:#FFFFFF;stroke:#000000;stroke-width:0.5;stroke-miterlimit:10;}
</style>
<path class="st0" d="M36.72,64.19"/>
<g>
	<path d="M41.63,34.47c0.18,1.75-0.08,3.26-0.89,4.84c-0.4,0.79-0.93,1.55-1.04,2.46c-0.22,1.82,1.12,3,2.45,4
		c0.77,0.58,1.52-0.72,0.76-1.3c-1.61-1.21-1.82-2.12-1.04-4.12c0.19-0.48,0.51-0.92,0.7-1.41c0.57-1.44,0.71-2.93,0.55-4.47
		C43.03,33.52,41.53,33.51,41.63,34.47L41.63,34.47z"/>
</g>
<path d="M60.89,60.56c-0.03,0-0.06-0.01-0.09-0.01c-0.38-0.06-0.73,0.09-0.88,0.45c-4.4,4.34-9.99,7.18-16.23,7.55
	c-4.87,0.29-9.6-2.65-13.66-5.38c-0.28-0.24-0.56-0.48-0.86-0.71c-0.52-0.38-1.02,0.07-1.07,0.58c-0.08,0.29-0.01,0.62,0.3,0.83
	c0.28,0.19,0.55,0.37,0.83,0.56c3.16,2.87,4.3,7.32,7.7,9.99c3.08,2.42,7.23,2.69,10.93,1.9c3.5-0.75,7.14-2.33,9.31-5
	c0.73-0.9,4.23-7.75,3.59-9.09c0.15-0.15,0.31-0.28,0.46-0.43C61.58,61.45,61.47,60.65,60.89,60.56z M56.33,69.93
	c-2.64,3.53-7.92,5.41-12.26,5.32c-5.81-0.11-8.04-4.28-10.76-8.2c3.58,2.08,7.22,3.41,11.91,2.85c5.24-0.63,9.92-2.83,13.88-6.15
	C58.44,65.94,57.67,68.13,56.33,69.93z"/>
<path d="M86.67,36.92c-1.38-2.56-5.13-2.57-7.53-1.68c-2,0.75-3.78,3.07-2.57,5.22c1.47,2.61,5.7,2.25,8.06,1.48
	c0.22-0.07,0.36-0.22,0.44-0.38C86.68,40.62,87.69,38.81,86.67,36.92z M83.06,40.72c-0.14,0.02-0.24,0.08-0.33,0.16
	c-1.04,0.18-2.11,0.19-3.15-0.1c-2.26-0.63-2.36-2.9-0.35-3.95c1.23-0.63,3.03-0.8,4.36-0.44c0.92,0.25,1.98,1.04,1.98,2.12
	C85.57,39.95,84.2,40.52,83.06,40.72z"/>
<path d="M14.06,35.88C12,34.12,8.87,34.73,6.57,35.7c-1.94,0.82-4.13,3.19-2.11,5.13c2.31,2.23,6.15,1.29,8.85,0.55
	c0.35-0.1,0.51-0.36,0.53-0.63C15.78,39.73,15.63,37.22,14.06,35.88z M13,39.5c-0.25,0.12-0.35,0.31-0.37,0.51
	c-1.21,0.33-2.43,0.67-3.69,0.7c-0.69,0.02-1.4-0.03-2.07-0.24C6,40,6,40,5.77,39.04c0.08-0.36,0.13-0.59,0.18-0.76
	c0.12-0.43,0.39-0.81,0.79-1.01c0.8-0.42,1.74-0.63,2.61-0.79c0.86-0.16,1.77-0.35,2.63-0.07C13.16,36.79,14.9,38.58,13,39.5z"/>
<path d="M65.61,56.91c-1.39,0.15-2.79,0.31-4.18,0.46c-3.78-0.66-7.41-2.39-11.26-2.56c-1.5-0.07-2.52,0.19-3.92,0.53
	c-1.81,0.43-3.55,1.34-5.49,1.46c-0.67,0.04-1.21-0.34-1.93-0.25c-3.3,0.43-6.01,2.48-9.36,2.82c-1.79,0.18-3.6,0.24-5.4,0.36
	c-0.95,0.06-0.97,1.51,0,1.5c2.8-0.03,5.98,1.31,8.86,1.58c3.82,0.36,7.7,0.47,11.54,0.4c7.35-0.13,14.52-2.2,21.34-4.83
	C66.52,58.11,66.52,56.81,65.61,56.91z M42.61,61.72c-3.76-0.02-7.56-0.13-11.29-0.6c-0.63-0.08-1.27-0.22-1.92-0.38
	c1.78-0.25,3.53-0.64,5.4-1.29c3.5-1.22,6.89-0.71,10.32-1.95c5.65-2.05,9.88,0.15,15.3,1.2C54.65,60.56,48.74,61.76,42.61,61.72z"
	/>
<path d="M31.78,24.39c-0.6-2.01-3.15-3.9-4.37-5.72c-1.63-2.42-3.15-4.01-6.06-4.86c-2.92-0.85-6.74,0.85-6.91,0.85
	c-1.86,0-3.62-0.4-5.29-1.23C8.29,13,7.53,14.3,8.39,14.72c1.6,0.79,3.28,1.24,5.04,1.37c-0.71,0.74-1.38,1.55-2.09,2.36
	c-1.74-0.12-3.41-0.53-5.02-1.21c-0.89-0.37-1.28,1.08-0.4,1.45c1.34,0.56,2.71,0.93,4.13,1.13c-1.32,1.28-2.86,2.37-4.97,2.8
	c-0.95,0.19-0.55,1.64,0.4,1.45c2.01-0.41,3.78-1.05,5.4-2.37c1.54-1.25,2.08-3.24,3.46-4.44c3.02-2.64,7.18-2.59,9.95-0.02
	c1.07,0.99,1.7,2.05,2.48,3.23c0.48,0.73,0.94,1.52,1.51,2.19c0.16,0.19,0.73,0.7,1.36,1.11c0.15,0.1,0.14,0.32-0.03,0.39
	c-1.69,0.78-8.49,3.75-8.51,3.76c-4.19,1.41-6.59-1.42-10.29-1.58c-0.97-0.04-0.96,1.46,0,1.5c2.88,0.12,4.41,2.71,7.57,2.46
	c4.55-0.36,7.9-4.15,12.4-4.83c0.04-0.01,0.06-0.03,0.1-0.04c0.01,0,0.01,0,0.01,0c0.12-0.04,0.23-0.08,0.35-0.13
	C31.63,25.18,31.91,24.8,31.78,24.39z"/>
<path d="M57.57,24.39c0.6-2.01,3.15-3.9,4.37-5.72c1.63-2.42,3.15-4.01,6.06-4.86c2.92-0.85,6.74,0.85,6.91,0.85
	c1.86,0,3.62-0.4,5.29-1.23c0.86-0.43,1.62,0.87,0.76,1.3c-1.6,0.79-3.28,1.24-5.04,1.37c0.71,0.74,1.38,1.55,2.09,2.36
	c1.74-0.12,3.41-0.53,5.02-1.21c0.89-0.37,1.28,1.08,0.4,1.45c-1.34,0.56-2.71,0.93-4.13,1.13c1.32,1.28,2.86,2.37,4.97,2.8
	c0.95,0.19,0.55,1.64-0.4,1.45c-2.01-0.41-3.78-1.05-5.4-2.37c-1.54-1.25-2.08-3.24-3.46-4.44c-3.02-2.64-7.18-2.59-9.95-0.02
	c-1.07,0.99-1.7,2.05-2.48,3.23c-0.48,0.73-0.94,1.52-1.51,2.19c-0.16,0.19-0.73,0.7-1.36,1.11c-0.15,0.1-0.14,0.32,0.03,0.39
	c1.69,0.78,8.49,3.75,8.51,3.76c4.19,1.41,6.59-1.42,10.29-1.58c0.97-0.04,0.96,1.46,0,1.5c-2.88,0.12-4.41,2.71-7.57,2.46
	c-4.55-0.36-7.9-4.15-12.4-4.83c-0.04-0.01-0.06-0.03-0.1-0.04c-0.01,0-0.01,0-0.01,0c-0.12-0.04-0.23-0.08-0.35-0.13
	C57.72,25.18,57.44,24.8,57.57,24.39z"/>
</svg>
